<svg xmlns="http://www.w3.org/2000/svg" x="0px" y="0px" width="100" height="100" viewBox="0,0,256,256"
style="fill:#000000;">
<g fill="none" fill-rule="nonzero" stroke="none" stroke-width="1" stroke-linecap="butt" stroke-linejoin="miter" stroke-miterlimit="10" stroke-dasharray="" stroke-dashoffset="0" font-family="none" font-weight="none" font-size="none" text-anchor="none" style="mix-blend-mode: normal"><g transform="scale(2.56,2.56)"><path d="M32.678,21.785l-10.017,10.018l16.516,16.516l-17.106,17.106l10.017,10.019l17.107,-17.107l17.606,17.607l10.018,-10.019l-17.606,-17.606l17.467,-17.467l-10.018,-10.019l-17.467,17.468z" fill="#3ddab4"></path><path d="M65.512,22.835l9.193,9.193l-16.317,16.318l16.404,16.403l-9.193,9.193l-16.404,-16.403l-15.904,15.903l-9.192,-9.193l15.903,-15.903l-15.404,-15.404l9.192,-9.193l15.404,15.404l16.318,-16.318M65.512,14.349l-4.243,4.243l-12.074,12.075l-11.162,-11.161l-4.243,-4.243l-4.243,4.243l-9.191,9.194l-4.242,4.243l4.242,4.242l11.161,11.161l-11.661,11.66l-4.242,4.242l4.242,4.243l9.192,9.193l4.243,4.243l4.243,-4.243l11.661,-11.661l12.161,12.161l4.243,4.243l4.243,-4.243l9.193,-9.193l4.243,-4.243l-4.243,-4.243l-12.162,-12.159l12.075,-12.075l4.243,-4.243l-4.243,-4.243l-9.193,-9.193l-4.243,-4.243z" fill="#4343bf"></path><path d="M65.619,87.025l-16.425,-16.424l-13.603,13.601l-7.07,-7.07l20.673,-20.674l16.425,16.425l8.31,-8.31l-16.425,-16.425l20.904,-20.902l7.071,7.07l-13.833,13.832l16.425,16.425z" fill="#3abcf8"></path><rect x="71.7016" y="-36.17499" transform="rotate(45.001)" width="13" height="6" fill="#4343bf"></rect></g></g>
</svg>